<svg id="svg" version="1.1" xmlns="http://www.w3.org/2000/svg" viewBox="0 0 132 83" style="display: block;"><path d="M0 0 C43.56 0 87.12 0 132 0 C132 27.39 132 54.78 132 83 C88.44 83 44.88 83 0 83 C0 55.61 0 28.22 0 0 Z " transform="translate(0,0)" style="fill: #03454C;"/><path d="M0 0 C4.2755592 2.50079878 7.66683171 5.60884634 11.3125 8.9375 C21.9955428 18.48101824 32.4116807 21.25880197 46.3125 23.9375 C44.56643525 29.00210887 41.77872088 33.39117314 39 37.9375 C38.52626953 38.7315625 38.05253906 39.525625 37.56445312 40.34375 C31.28715279 50.64848379 31.28715279 50.64848379 26.4375 52.75 C23.38953324 53.01893824 20.36973104 52.9962929 17.3125 52.9375 C18.8222054 48.73863185 20.944249 45.07081136 23.3125 41.3125 C23.66828125 40.74015625 24.0240625 40.1678125 24.390625 39.578125 C25.99456022 37.00464685 27.63031774 34.46077339 29.3125 31.9375 C27.4871875 31.9065625 27.4871875 31.9065625 25.625 31.875 C14.39873398 30.55322614 6.1251716 23.44425868 -1.15234375 15.390625 C-4.93896035 11.72653374 -8.85395108 9.51479781 -14.1875 9.4375 C-19.14975474 9.57184192 -21.29334211 11.45631242 -24.6875 14.9375 C-23.83478516 14.86789063 -23.83478516 14.86789063 -22.96484375 14.796875 C-16.86118298 14.51156198 -13.67681493 15.38741053 -8.6875 18.9375 C-6.97756566 20.5597454 -5.31402316 22.23163425 -3.6875 23.9375 C2.74117935 30.50798845 10.07635117 34.13175145 18.3125 37.9375 C9.30419051 55.60273101 9.30419051 55.60273101 -0.12890625 59.27734375 C-7.11620916 61.08017458 -14.44107587 61.06605425 -20.78515625 57.39453125 C-23.03196771 55.67366744 -24.87285437 53.74815104 -26.8125 51.6875 C-37.50344682 40.6505089 -48.91007207 37.54592753 -63.6875 35.9375 C-49.5616781 8.7937638 -49.5616781 8.7937638 -40.6875 5.9375 C-38.19131086 5.60056192 -36.21831559 5.67387338 -33.6875 5.9375 C-34.58077283 10.22556035 -36.77895435 13.40955191 -39.1875 17 C-42.3971379 21.72579473 -42.3971379 21.72579473 -44.6875 26.9375 C-43.96175781 27.06769531 -43.23601563 27.19789062 -42.48828125 27.33203125 C-30.19428233 29.98972976 -22.09620122 37.38072456 -13.203125 45.765625 C-9.81431628 48.69136669 -7.75980919 49.81835453 -3.3125 50.3125 C1.20122855 49.84556256 4.10104358 48.14895642 7.3125 44.9375 C6.33023438 45.03804687 6.33023438 45.03804687 5.328125 45.140625 C0.2493032 45.22670673 -2.70892952 44.74621499 -6.703125 41.4453125 C-8.23835173 39.88471635 -9.71630691 38.28106707 -11.1953125 36.66723633 C-17.78329032 29.50217042 -25.43256069 24.90606544 -34.6875 21.9375 C-31.34248731 12.78358723 -25.17031768 4.86770822 -16.8125 -0.19921875 C-11.52578154 -2.34694812 -5.34605258 -1.54038803 0 0 Z " transform="translate(72.6875,11.0625)" style="fill: #F3D047;"/></svg>